<?xml version="1.0" encoding="UTF-8"?>
<svg version="1.1" viewBox="0 0 1600 1360" width="400" height="340" xmlns="http://www.w3.org/2000/svg">
<path transform="translate(1088,172)" d="m0 0h17l25 1 33 4 31 7 20 6 27 11 21 11 17 11 18 14 14 12 11 12 9 10 13 19 10 16 11 22 8 20 8 26 6 29 3 21 2 38v12l-2 35-5 35-7 36-11 41-16 46-11 26-15 33-9 17-7 14-12 22-12 19-16 26-13 18-14 20-14 19-11 13-7 9-14 17-7 8-11 12-13 14-7 8-34 34-8 7-9 9-11 9-12 11-11 9-13 11-12 9-17 13-18 13-24 16-20 13-15 9-41 23-21 10-16 8-25 11-39 15-42 13-28 7-36 7-33 4-15 1h-52l-23-2-25-4-28-7-27-10-16-7-20-11-14-9-14-11-13-11-14-14-7-8-8-10-14-21-9-16-11-24-9-27-5-19-6-36-2-31v-37l4-37 2 1 6 39 8 30 10 25 8 16 13 21 13 15 7 8 7 7 8 7 12 9 17 11 26 13 23 8 13 4 27 5 28 3h38l38-4 23-4 30-7 37-11 34-13 20-9 48-24 25-15 23-14 17-12 14-10 18-13 10-8 13-11 11-9 14-12 8-7 8-8 8-7 30-30 7-8 9-10 7-8 9-10 10-13 14-18 10-13 9-13 10-15 1-4-11-36-20-67-15-50-13-45v-3l-17-4-82-21-11-3-2 5-8 8-16 8-12 2-13-1-11-4-9-6-8-8-6-10-4-13v-14l4-14 7-11 7-7 12-7 10-3h18l10 3 10 6 9 8 6 10 4 10 2 11 6 2 67 16 24 6h6l30-15 23-11 5-1-1 5-7 23-16 54-4 15 1 9 15 53 19 66 5 19-1 7 4 8 1 4v7l-11 8-7 8-4 11-1 5v11l4 12 6 9 8 7 11 5 5 1h11l9-2 10-5 7-6 6-10 3-10v-15l-4-11-6-9-8-7-13-5-10-1-5-13-6-20-2-2 14-25 6-10 11-23 7-15 12-28 12-34 10-35 7-34 4-28 1-12h-4v-27l-2-30-6-36-7-24-6-16-11-23-12-19-8-10-9-11-13-13-11-9-14-10-15-9-25-12-30-10-30-6-33-3h-32l-32 3-25 4-36 8-6 2-4-1 27-12 34-13 35-11 34-9 41-8 37-4z" fill="#FEFEFE"/>
<path transform="translate(718,221)" d="m0 0 43 2 36 4 31 6 25 7 28 10 20 9 2 3-9 2-1 2 16 10 22 15 4 2 9-8 12-6 4-1h14l10 3 10 7 7 8 5 11 1 4v15l-4 11-8 11-9 7-12 4h-17l-11-4-10-8-6-9-4-9-1-5v-10l1-5-9-2-37-14-14-5-13 2-67 12h-2l-3 9-12 29 1 5 26 53 13 28 7 14v3l-12 5-68 25-32 12-4-1-13-30-19-46-15-36-1-4 10-4 54-17 30-9 13-28 6-14-1-5-11-16-15-22-8-12-12-17zm244 81-6 3-5 6-1 3v9l3 6 5 4 5 2h7l8-5 4-6 1-8-4-8-6-5-3-1z" fill="#FEFEFE"/>
<path transform="translate(680,514)" d="m0 0 4 1 6 16 13 33 17 43 3 6 15 4 83 20h3l7-8 7-6 8-5 12-4h19l10 3 11 6 11 11 7 13 3 12v11l-5 16-9 13-8 7-12 6-11 3h-13l-12-3-10-6-10-9-6-9-5-12-1-12-10-2-65-16-26-7-4-1-11 5-30 13-41 18-24 10-5-1-10-24-15-42-12-35-4-12 2-4 100-44 17-7zm182 124-8 3-7 6-4 7-1 4v13l5 10 7 6 11 4 10-1 10-5 6-7 3-8v-12l-5-10-8-7-7-3z" fill="#FEFEFE"/>
<path transform="translate(701,696)" d="m0 0h15l10 3 8 6 7 8 5 11 2 9 58 29 23 11 7 4 5-1 37-15 40-16 16-6h3l8 25 12 38 9 28 11 36 2 5-1 4-10 9-7 7-8 7-14 12-13 10-16 13-19 13-5 3-4-9-15-39-16-41-10-26-11-28-4-4-86-43-4 1-6 5-9 4-8 2h-9l-13-4-9-7-6-8-4-10v-18l4-10 9-10 5-4zm5 20-10 4-4 6-1 3v9l4 6 5 4 9 2 8-3 5-6 2-5-1-9-4-6-6-4z" fill="#FEFEFE"/>
<path transform="translate(536,584)" d="m0 0h5l17 50 16 45 7 19-14 7-39 16-55 23-5 1-10-25-14-44-7-27-1-10 24-13 21-12 28-15 22-12z" fill="#FEFEFE"/>
<path transform="translate(644,852)" d="m0 0h7l12 24 14 24 17 29 13 20 1 4-108 15h-10l-10-12-13-18-17-25-12-19-8-14 1-2 90-21z" fill="#FEFEFE"/>
<path transform="translate(587,727)" d="m0 0h4l7 19 12 27 15 33 8 15v2l-30 10-66 20-19 6-4-2-15-29-15-32-10-24 1-4 95-35z" fill="#FEFEFE"/>
<path transform="translate(500,440)" d="m0 0 2 2 9 37 14 54 7 23-1 3-20 11-49 28-23 13-9 5-2-7-6-29-9-53-2-20 4-4 14-10 13-10 19-14 16-12 18-13z" fill="#FEFEFE"/>
<path transform="translate(407,652)" d="m0 0h3l9 36 13 43 8 21-1 3-36 16-65 28-5 2-4-1-11-30-10-37-4-24 9-6 17-9 22-12 29-16 23-12z" fill="#FEFEFE"/>
<path transform="translate(573,248)" d="m0 0 4 4 13 31 13 30 15 35 2 6-8 5-29 14-28 13-29 14-9 3-8-34-13-65-2-11 1-5 15-9 18-10 31-15z" fill="#FEFEFE"/>
<path transform="translate(448,780)" d="m0 0 5 1 11 25 14 30 10 20 5 8-1 4-39 12-41 12-21 6-4-1-7-8-10-15-16-27-12-23-1-5 93-34z" fill="#FEFEFE"/>
<path transform="translate(385,523)" d="m0 0h3l9 60 6 32 2 9v6l-18 10-27 16-28 16-25 15-5 1-1-16v-46l3-34 2-10 13-10 19-14 16-12 18-13 12-9z" fill="#FEFEFE"/>
<path transform="translate(473,306)" d="m0 0h2l12 64 9 41-1 4-16 12-16 13-16 12-14 11-18 14-4 3h-2l-1-2-5-59-2-33v-11l11-12 7-8 15-16 8-7 8-8 14-11z" fill="#FEFEFE"/>
<path transform="translate(502,888)" d="m0 0h6l11 17 15 22 14 20 13 16 6 9-9 2-72 10-12 1-14-11-10-9-8-7-15-14-11-11-7-8-9-11 2-2 50-12z" fill="#FEFEFE"/>
<path transform="translate(713,976)" d="m0 0h10l15 22 13 18 2 3v3l-39 13-27 8-18 4h-7l-15-14-27-27-14-16v-3l36-4z" fill="#FEFEFE"/>
<path transform="translate(380,402)" d="m0 0h1l2 49 3 49-10 9-17 13-15 12-17 13-12 10h-3l2-10 7-25 11-32 16-36 14-24 8-14z" fill="#FEFEFE"/>
<path transform="translate(570,989)" d="m0 0h10l12 12 6 7 2 1v2l4 2 28 28 9 7v3l-18 3h-11l-19-6-31-11-31-14-23-13-18-11-1-2 2-1z" fill="#FEFEFE"/>
<path transform="translate(583,380)" d="m0 0h4l15 43 3 11-9-2-52-17-16-5v-3l16-8 31-15z" fill="#FEFEFE"/>
<path transform="translate(768,470)" d="m0 0 4 1 12 51v2l-6-1-23-10-37-15-7-3 1-3 41-16z" fill="#FEFEFE"/>
<path transform="translate(605,474)" d="m0 0 3 1 10 19 14 24 1 4-15 7-40 18-5 1 2-6 12-27 13-30z" fill="#FEFEFE"/>
<path transform="translate(859,231)" d="m0 0" fill="#FEFEFE"/>
</svg>
