<?xml version="1.0" encoding="UTF-8"?>
<svg version="1.1" viewBox="0 0 1208 1160" width="302" height="290" xmlns="http://www.w3.org/2000/svg">
<path transform="translate(874,72)" d="m0 0h23l21 1 34 4 30 7 20 6 32 13 24 14 12 8 16 13 11 9 14 15 11 13 16 24 9 16 11 24 11 35 5 24 4 27 1 16v54l-2 22-6 39-6 28-10 37-16 46-11 26-15 33-9 17-8 16-13 23-13 21-15 24-13 18-13 19-14 18-9 11-8 10-13 16-9 10-7 8-14 15-9 10-38 38-8 7-14 13-11 9-11 10-14 11-11 9-19 14-13 10-39 26-19 12-28 16-22 12-37 18-25 11-37 14-35 11-30 8-40 8-34 4-15 1h-52l-31-3-17-3-32-8-33-13-21-11-18-11-16-13-10-8-18-18-9-11-9-12-11-17-9-17-9-20-9-27-5-19-6-36-2-31v-37l4-41 2 1 3 23 4 24 8 29 12 29 16 27 9 11 11 13 8 8 8 7 10 8 20 13 26 13 32 11 31 6 29 3h36l31-3 30-5 31-7 39-12 19-7 29-12 52-26 51-31 18-13 17-12 16-12 13-11 14-11 10-9 11-9 19-19 8-7 19-19 1-2h2l2-4 13-14 9-11 8-8 10-13 14-18 15-20 14-21v-7l-9-29-16-54-20-67-13-44v-4l-17-4-90-23-3-1-2 5-8 8-11 6-9 3-13 1-12-2-14-7-10-10-7-12-3-11v-14l3-11 5-10 9-10 9-6 10-4 4-1h18l10 3 9 5 10 9 7 11 4 13 1 7 6 2 67 16 24 6h6l32-16 23-11h3l-1 5-15 50-9 31-3 11 1 9 25 87 14 50-1 8 4 8 1 4v7l-12 9-6 7-4 11-1 6v9l4 13 6 9 7 6 10 5 8 2h10l13-4 8-5 5-5 6-9 3-11v-14l-4-11-6-9-7-6-11-5-13-2-4-10-7-23-1-4 13-23 12-23 13-27 12-29 11-31 8-28 8-36 5-34v-10l-3-1-1-3 1-7v-13l-2-34-5-31-8-29-10-25-10-19-9-14-8-10-9-11-13-13-11-9-14-10-15-9-25-12-27-9-28-6-25-3-14-1h-27l-27 2-34 5-32 7-10 3-4-1 27-12 28-11 24-8 42-12 44-9 33-4z"/>
<path transform="translate(506,121)" d="m0 0 29 1 43 4 30 5 27 7 29 10 21 9 6 4v2l-11 1 3 3 11 7 25 17 4 2 9-8 12-6 3-1h16l11 4 8 6 7 8 5 11 1 4v15l-4 12-7 9-7 6-8 4-7 2h-17l-11-4-9-7-6-8-4-8-2-8v-10l1-5-7-1-39-15-14-5-13 2-66 12-3 2-15 36 1 4 12 25 14 29 11 23 9 19v3l-12 5-24 9-47 17-29 11-4-1-11-25-29-70-8-19 1-3 53-17 40-12 9-19 10-23-1-5-14-20-8-12-21-31-3-4zm245 81-7 3-5 6-1 4v8l5 8 8 4h7l8-5 4-6 1-7-3-8-7-6-3-1z"/>
<path transform="translate(468,414)" d="m0 0 4 1 6 16 19 48 13 33 3 2 55 13 41 10h3l7-8 8-7 12-6 7-2h20l14 5 13 10 9 13 4 12 1 7v8l-4 15-6 10-9 10-14 8-12 3h-13l-12-3-12-7-10-10-8-16-2-8v-7l-14-3-64-16-21-5-3-2-4 1-26 11-39 17-42 18-4-4-11-27-17-48-12-36 2-4 41-18 29-13 25-11zm182 124-8 3-6 5-5 8-1 4v13l5 10 7 6 7 3 9 1 10-3 8-6 4-6 2-7v-10l-4-10-7-7-10-4z"/>
<path transform="translate(489,596)" d="m0 0h16l11 4 7 5 6 8 5 11 2 9 50 25 23 11 15 8 5-1 49-20 43-17 5 1 12 39 18 57 9 30 2 5-1 4-13 12-15 14-10 8-16 13-14 11-17 12-7 4-4-9-16-41-17-44-18-47-3-5-88-44-4 1-6 5-8 4-9 2h-9l-13-4-9-7-7-10-3-8-1-12 3-12 7-11 11-8zm1 21-6 4-4 5-1 3v8l3 6 6 5 9 2 7-3 5-5 3-6-1-9-4-6-6-4z"/>
<path transform="translate(326,483)" d="m0 0 3 1 17 50 16 45 7 18v2l-38 16-70 29-5 1-5-11-12-36-10-32-5-22v-5l18-10 29-16 26-14 22-12z"/>
<path transform="translate(437,751)" d="m0 0 3 2 10 21 14 24 17 29 11 17 4 6v3l-115 16-4-1-12-16-10-14-13-19-10-15-9-15-5-10 9-3 69-16z"/>
<path transform="translate(375,627)" d="m0 0h4l9 24 16 35 11 24 6 11v2l-30 10-69 21-15 5-4-1-6-10-14-28-15-33-7-18 12-5 47-17 38-14z"/>
<path transform="translate(288,340)" d="m0 0 2 2 16 64 9 33 5 17-1 3-27 15-24 14-18 10-21 12-11 6-2-7-6-29-9-53-2-20 4-4 14-10 13-10 19-14 16-12 19-14z"/>
<path transform="translate(195,552)" d="m0 0h3l8 32 13 44 9 24-1 3-22 10-58 25-26 11-4-1-10-27-7-24-5-21-3-19 9-6 17-9 23-13 19-10 22-12z"/>
<path transform="translate(361,148)" d="m0 0 4 4 11 26 13 30 18 42 1 5-37 18-28 13-29 14-9 3-6-25-14-68-3-17 1-5 20-12 23-12 21-10z"/>
<path transform="translate(235,680)" d="m0 0h5l5 10 9 21 8 16 11 23 9 16-1 2-57 17-44 13h-5l-10-13-12-19-14-24-8-16-2-3v-4l90-33z"/>
<path transform="translate(173,423)" d="m0 0h3l10 65 7 36v6l-23 13-48 28-19 11-11 6h-2l-1-14v-49l3-34 2-9 18-14 14-10 20-15 18-13z"/>
<path transform="translate(261,206)" d="m0 0h2l11 59 10 46-1 4-17 13-15 12-16 12-14 11-18 14-4 3h-2l-1-2-5-59-2-31v-13l13-15 16-17 11-11 8-7 17-14z"/>
<path transform="translate(289,788)" d="m0 0h7l11 17 13 19 12 17 8 11 14 17 1 3-8 2-73 10-12 1-17-13-16-15-10-9-17-17-14-16 1-3 47-11z"/>
<path transform="translate(502,876)" d="m0 0h9l8 11 10 15 12 17v3l-20 7-42 13-22 5h-7l-12-11-32-32-9-11-4-4v-2l15-2z"/>
<path transform="translate(168,302)" d="m0 0h1l2 47 3 46-1 7-17 13-16 13-12 9-18 14-8 7h-2l1-7 7-26 12-35 12-27 8-16 16-28 11-16z"/>
<path transform="translate(357,889)" d="m0 0h11l12 12 7 8 16 15 17 17 9 7v3l-16 3h-13l-20-6-30-11-29-13-24-13-19-12-1-2 2-1z"/>
<path transform="translate(371,280)" d="m0 0h4l15 43 3 11-6-1-55-18-16-5v-3l16-8z"/>
<path transform="translate(556,370)" d="m0 0 4 1 12 50v3l-6-1-38-16-29-12 1-3 51-20z"/>
<path transform="translate(393,373)" d="m0 0 4 4 12 22 12 21-1 3-41 18-16 7h-2l2-6 18-41z"/>
</svg>
