<?xml version="1.0" encoding="UTF-8"?>
<svg version="1.1" viewBox="0 0 2048 547" width="744" height="199" xmlns="http://www.w3.org/2000/svg">
<path transform="translate(311,82)" d="m0 0h33l17 3 18 6 15 8 13 10 9 9 10 15 7 15 4 13 3 17v36l-4 23-5 19-9 25-12 25-8 14-12 19-12 16-13 16-11 12-7 8-10 10-8 7-15 13-20 15-20 13-22 12-21 10-25 9-24 6-22 3h-28l-19-3-18-6-16-8-11-9-12-12-9-14-7-15-4-13-3-21v-29l2-4 6 25 7 16 7 10 9 10 11 8 16 8 14 4 13 2h25l24-4 24-7 21-9 21-11 19-12 17-13 11-9 13-12 15-15 7-8 12-15 9-13-1-10-17-57-4-13v-2l-9-1-31-8-4 2-6 5-4 1h-8l-8-4-6-9-1-8 3-8 5-5 8-4h7l10 5 4 6 2 8 34 8h7l19-9 2-1-2 9-8 28 1 8 15 53 1 6-8 9-1 9 3 7 5 4 3 1h9l6-3 4-8v-7l-4-8-5-3-7-2-3-9v-6l15-30 8-22 6-25 1-6-1-28-3-19-5-15-7-13-8-10-8-8-14-9-15-6-17-4-11-1h-14l-18 2-15 3-3-1 22-9 26-7 16-3z" fill="#FEFEFE"/>
<path transform="translate(1969,158)" d="m0 0h8l15 4 11 6 13 12 9 12 6 13 4 16 1 6v18l-3 16-6 15-7 11-11 12-10 7-12 5-8 2h-20l-14-4-10-6-9-7v-2h-2l-8-10-6-10-5-14-3-15 1-5h35l5 18 5 9 5 6 6 4 6 2h8l10-4 7-7 6-12 3-13v-15l-4-15-7-12-8-6-10-3-1-1z" fill="#FEFEFE"/>
<path transform="translate(1260,159)" d="m0 0h74l10 2 9 4 9 6 5 4 8 11 5 11 2 11v10l-2 12-5 11-8 11-8 7-14 7-8 2-10 1h-26l-1-14v-20l1-1 31-1 8-4 5-8 1-4v-7l-3-8-2-4-4-2-6-2-70-1-1-1z" fill="#FEFEFE"/>
<path transform="translate(1112,159)" d="m0 0h42l7 10 11 18 24 38 10 15 16 25 10 15 15 23 5 8v2h-41l-6-9-19-32-16-26-10-15-29-43-19-28z" fill="#FEFEFE"/>
<path transform="translate(1391,198)" d="m0 0h35v75l-1 1-17 1v3h80l1 1v33l-15 1h-83l-1-1v-33l1-1h11l2 1 1-5h-14l-1-2z" fill="#FEFEFE"/>
<path transform="translate(471,159)" d="m0 0h38l6 21 21 77 13 47 2 8-3 1h-32l-4-10-16-57-16-55-8-28z" fill="#FEFEFE"/>
<path transform="translate(845,215)" d="m0 0h29l13 2 13 5 10 7 7 7 6 10 3 11v13l-3 11-5 10-10 11-12 7-11 3-13 1h-27v-35l36-1 6-4 3-7v-8l-4-8-5-3-35-1-1-1z" fill="#FEFEFE"/>
<path transform="translate(1741,159)" d="m0 0h33l1 1v153h-35v-153z" fill="#FEFEFE"/>
<path transform="translate(1839,197)" d="m0 0h41l-2 6-14 29-13 28-19 39-6 13-2 1h-43l1-6 16-32 10-19 29-58z" fill="#FEFEFE"/>
<path transform="translate(180,100)" d="m0 0 27 2 19 4 18 6 6 3-1 4 11 7 3 2 8-5 6-1 8 3 5 6 1 2v10l-4 6-5 4-10 1-6-3-5-6-2-10-21-8-10 1-22 4-5 10-1 7 16 33 1 4-8 4-33 12-3 1-3-5-16-38v-3l36-12 4-8 3-9-15-22-3-5zm92 32-3 4 1 6 4 3 5-1 3-4-1-6-3-2z" fill="#FEFEFE"/>
<path transform="translate(1498,159)" d="m0 0h73l9 2 12 7 7 7 6 10 3 10v14l-4 10-8 9-3 2-5-1-16-8-6-2 2-4 3-4 1-3v-8l-3-5-2-2-69-1-1-3v-24z" fill="#FEFEFE"/>
<path transform="translate(655,159)" d="m0 0h35l-4 16-32 112-7 24-2 1-15-55-1-7 17-62 8-28z" fill="#FEFEFE"/>
<path transform="translate(563,159)" d="m0 0h35l-2 10-21 75-17 60-2 6h-2l-13-50-2-7v-7l12-45 11-40z" fill="#FEFEFE"/>
<path transform="translate(807,194)" d="m0 0h32l1 1v118h-35v-118z" fill="#FEFEFE"/>
<path transform="translate(1655,196)" d="m0 0h35l1 5v110l-7 2h-28l-1-1z" fill="#FEFEFE"/>
<path transform="translate(1499,197)" d="m0 0h34v115l-8 1h-23l-3-1-1-2v-112z" fill="#FEFEFE"/>
<path transform="translate(1261,198)" d="m0 0h35v114l-7 1h-27l-1-1z" fill="#FEFEFE"/>
<path transform="translate(804,159)" d="m0 0h79l10 3 10 7 7 8 4 9 1 5v9l-3 9-6 10-6-1-15-5-8-2 3-6v-7l-4-6-2-1-70-1z" fill="#FEFEFE"/>
<path transform="translate(600,169)" d="m0 0h2l35 128 4 13v2l-2 1h-31l-2-2-19-68-3-11v-7l12-42z" fill="#FEFEFE"/>
<path transform="translate(164,214)" d="m0 0 3 2 14 36 37 9 4-2 7-5 3-1h11l7 4 5 6 2 5v9l-5 8-6 5-10 2-9-3-5-4-4-8v-5l-15-3-23-6-7 1-34 15-5 1-7-17-9-27 2-3 21-9zm71 48-5 2-3 6 1 7 4 4 2 1h7l6-5 1-6-3-6-4-3z" fill="#FEFEFE"/>
<path transform="translate(173,284)" d="m0 0 9 1 5 4 3 6v4l6 2 28 14 6-1 32-13h2l11 33 5 16-1 5-13 12-9 7-11 8-3-1-12-32-8-20-1-4-6-2-28-14-7 4h-10l-6-4-3-4-1-3v-7l4-7zm1 8-4 2-2 6 4 5h6l4-5-2-6z" fill="#FEFEFE"/>
<path transform="translate(1614,159)" d="m0 0h117v32h-117z" fill="#FEFEFE"/>
<path transform="translate(1539,220)" d="m0 0h10l15 2 14 5 11 7 11 10 6 10 2 6v52l-8 1h-26l-1-1-1-46-5-10-6-4-6-2-16-1-1-1v-27z" fill="#FEFEFE"/>
<path transform="translate(1784,159)" d="m0 0h115l-9 20-6 13h-100z" fill="#FEFEFE"/>
<path transform="translate(1021,275)" d="m0 0 4 1v2h79l1 1v33l-1 1h-98l-1-1v-33l1-1h14z" fill="#FEFEFE"/>
<path transform="translate(697,278)" d="m0 0h98l1 1v33l-11 1h-88l-1-1v-27z" fill="#FEFEFE"/>
<path transform="translate(1e3 159)" d="m0 0h100v33l-1 1h-98l-1-1z" fill="#FEFEFE"/>
<path transform="translate(697,159)" d="m0 0h99v33l-1 1h-98l-1-1v-28z" fill="#FEFEFE"/>
<path transform="translate(1390,159)" d="m0 0h99l1 6-1 28h-99z" fill="#FEFEFE"/>
<path transform="translate(1961,158)" d="m0 0h3l1 33-10 6-5 4-7 12-4 14-1 8-1 1h-34l-1-1v-8l3-15 6-16 7-11 9-10 7-6 10-6 12-4z" fill="#FEFEFE"/>
<path transform="translate(1007,197)" d="m0 0 34 1v76h-34l-1-1v-75z" fill="#FEFEFE"/>
<path transform="translate(698,197)" d="m0 0 34 1v76h-34l-1-1v-75z" fill="#FEFEFE"/>
<path transform="translate(1158,237)" d="m0 0 5 5 12 19 3 5-1 5-10 17-14 23-3 2h-40l2-5 32-49 11-17z" fill="#FEFEFE"/>
<path transform="translate(1209,159)" d="m0 0h41l-2 4-32 48-11 16h-3l-11-17-7-11 1-4 13-20 9-14z" fill="#FEFEFE"/>
<path transform="translate(108,241)" d="m0 0 3 1 10 29 5 14-12 6-30 12-3-1-9-27-2-8v-5l23-13z" fill="#FEFEFE"/>
<path transform="translate(1077,354)" d="m0 0h7l4 1 6 25 2 10h2l1-8 7-26 1-2h10l-1 8-11 43-3 7h-8l-4-6-7-29v-3h-2l-1 8-6 26-1 3-2 1h-8l-4-13-10-36-1-8h11l7 31v4h2l4-16 4-18z" fill="#FEFEFE"/>
<path transform="translate(1846,279)" d="m0 0h50v33l-5 1h-60l1-4 13-29z" fill="#FEFEFE"/>
<path transform="translate(149,345)" d="m0 0 5 1 9 17 12 19v2l-41 6h-5l-13-18-9-14v-3l24-6z" fill="#FEFEFE"/>
<path transform="translate(126,297)" d="m0 0h4l11 25 5 10v2l-42 13-5-1-11-23-3-7v-4z" fill="#FEFEFE"/>
<path transform="translate(93,186)" d="m0 0 3 1 9 36 2 7-3 3-25 14-11 6-3-8-4-23-1-11 9-7 19-14z" fill="#FEFEFE"/>
<path transform="translate(57,268)" d="m0 0h3l8 29 3 10-12 6-29 12h-2l-6-18-3-13v-5l23-13z" fill="#FEFEFE"/>
<path transform="translate(122,111)" d="m0 0h2l16 37 1 4-36 18h-4l-4-16-5-25 1-3 16-9z" fill="#FEFEFE"/>
<path transform="translate(1219,354)" d="m0 0h25l8 2 6 5 2 5v7l-4 7-3 1 7 9 1 9-3 6-5 5-8 2h-26l-1-1v-56zm11 8-1 16 1 1 15-1 4-4 1-4-3-6-7-2zm-1 25v16l1 1h13l5-3 2-3v-6l-5-5z" fill="#FEFEFE"/>
<path transform="translate(1430,218)" d="m0 0h48l1 1v32l-1 1h-47l-1-1z" fill="#FEFEFE"/>
<path transform="translate(737,218)" d="m0 0h48v34h-48z" fill="#FEFEFE"/>
<path transform="translate(1046,218)" d="m0 0h48v33l-1 1h-46l-1-1z" fill="#FEFEFE"/>
<path transform="translate(73,317)" d="m0 0 4 1 11 24 4 9-40 12-5-5-8-13-6-11v-2z" fill="#FEFEFE"/>
<path transform="translate(1815,354)" d="m0 0 9 1 4 5 17 28 1 1 1-34 4-1h6l1 1v57h-9l-10-15-12-19-2-3-1 37h-10v-57z" fill="#FEFEFE"/>
<path transform="translate(49,218)" d="m0 0h2l2 10 5 30-9 6-26 15-5 2-1-16 1-18 2-8 10-7z" fill="#FEFEFE"/>
<path transform="translate(868,354)" d="m0 0h27l7 2 6 6 2 5v8l-3 6-4 4-3 1 3 9 8 17h-10l-4-5-8-17v-2h-11v24h-10l-1-10v-47zm11 8-1 1v17h15l5-3 2-6-3-6-2-2-4-1z" fill="#FEFEFE"/>
<path transform="translate(83,134)" d="m0 0h2l5 25 3 16-8 7-24 18h-2l-2-19-1-21 14-15 8-7z" fill="#FEFEFE"/>
<path transform="translate(94,359)" d="m0 0 5 1 7 11 11 15 3 4v2l-29 4h-7l-9-7-19-19v-2z" fill="#FEFEFE"/>
<path transform="translate(1418,354)" d="m0 0h14l6 3 6 7 2 6v26l-2 7-5 6-6 3-10 1-9-2-6-4-4-6-1-5v-26l3-8 7-6zm3 8-6 5-2 8v12l2 13 5 4 7 1 5-3 3-5v-26l-3-7-3-2z" fill="#FEFEFE"/>
<path transform="translate(1753,354)" d="m0 0h15l8 5 4 6 1 4v30l-3 7-6 5-3 1h-17l-6-3-5-6-2-6v-28l3-7 5-5zm4 8-4 2-3 5v29l5 6 8 1 5-3 3-3 1-4v-20l-2-8-5-5z" fill="#FEFEFE"/>
<path transform="translate(796,354)" d="m0 0h40l1 1v7h-30v17h15l6 2v6h-21v17h29l1 3-1 5h-40l-1-1v-52z" fill="#FEFEFE"/>
<path transform="translate(1902,354)" d="m0 0h16l8 4 5 6 1 9h-10l-3-8-4-2h-10l-3 1v9l7 4 15 6 6 5 3 7-1 7-6 7-6 3-12 1-9-2-7-6-3-8v-3l10-1 4 8 7 3 9-2 2-3-1-6-5-3-18-8-6-6-1-3v-8l3-6 6-4z" fill="#FEFEFE"/>
<path transform="translate(1548,354)" d="m0 0 10 1 1 41 3 6 9 2 6-3 2-3 1-43 2-1 9 1v42l-3 7-4 5-7 3h-16l-8-5-5-8-1-4v-40z" fill="#FEFEFE"/>
<path transform="translate(1343,354)" d="m0 0h16l8 4 5 8 1 6-1 1h-9l-3-8-4-2h-10l-4 4v5l8 5 13 5 9 8 1 3v8l-4 6-8 5-11 1-10-2-8-7-2-5v-5l10-1 2 7 5 3 8 1 5-2 2-2v-6l-5-4-15-6-6-4-4-4-1-3v-8l4-7z" fill="#FEFEFE"/>
<path transform="translate(579,354)" d="m0 0h39l1 2-1 6h-29l-1 17h20l1 1v7l-14 1-6-1v17h29v8h-40v-57z" fill="#FEFEFE"/>
<path transform="translate(647,354)" d="m0 0 11 1 7 10 5 9 4-5 8-14 11-1 1 2-16 27 6 11 10 17v1h-10l-7-10-5-8v-2l-3 3-9 14-3 3h-9l2-5 11-19 2-5-7-12-9-14z" fill="#FEFEFE"/>
<path transform="translate(1148,354)" d="m0 0h38l1 3-1 5h-28v17l20 1v7h-20l-1 17h29l1 2-1 6h-38l-1-1v-56z" fill="#FEFEFE"/>
<path transform="translate(725,354)" d="m0 0h25l7 2 7 8 1 3v10l-4 7-6 4-5 1h-15v22l-1 1h-10v-57zm11 8-2 1v17l1 1h13l5-3 2-7-2-6-7-3z" fill="#FEFEFE"/>
<path transform="translate(175,393)" d="m0 0h6l12 16-3 3-19 6-8 2h-7l-7-8-13-13v-2z" fill="#FEFEFE"/>
<path transform="translate(940,354)" d="m0 0h42l1 3-1 5h-16v50h-11v-50h-16v-7z" fill="#FEFEFE"/>
<path transform="translate(1479,354)" d="m0 0 10 1 1 2-1 47h30v7l-1 1h-40v-57z" fill="#FEFEFE"/>
<path transform="translate(1622,354)" d="m0 0h42l1 1v7h-16v49l-1 1h-10l-1-49-15-1-1-7z" fill="#FEFEFE"/>
<path transform="translate(47,171)" d="m0 0h2l1 38-12 10-13 10-3 1 2-10 7-20 11-21z" fill="#FEFEFE"/>
<path transform="translate(120,398)" d="m0 0h6l23 23-3 2h-9l-15-5-20-9-10-6v-2z" fill="#FEFEFE"/>
<path transform="translate(1696,355)" d="m0 0h10v57h-10z" fill="#FEFEFE"/>
<path transform="translate(127,162)" d="m0 0 2 1 6 17v3l-11-3-18-6 1-3z" fill="#FEFEFE"/>
<path transform="translate(198,197)" d="m0 0h2l4 16v4l-5-1-22-9v-2z" fill="#FEFEFE"/>
<path transform="translate(135,199)" d="m0 0h2l8 15-1 4-19 9-2-1z" fill="#FEFEFE"/>
</svg>
