<?xml version="1.0" encoding="UTF-8"?>
<svg version="1.1" viewBox="0 0 2048 377" width="738" height="136" xmlns="http://www.w3.org/2000/svg">
<path transform="translate(1938,105)" d="m0 0h4v44l-12 6-6 5-7 10-5 12-3 13-1 10-1 1-15 1h-11v2l21 1 6 1 5 21 6 12 7 9 11 7 8 2 10-1 9-4 8-7 6-8 5-11 3-11 1-19-2-14-4-12-7-12-8-8-8-4-9-2-1-1v-43h9l18 4 15 8 10 8 12 12 9 14 6 13 5 17 2 12v25l-3 17-6 18-10 17-9 10-4 5-15 11-14 6-17 4h-18l-16-4-16-8-13-10-10-11-9-14-8-18-5-25v-5l10-2 1-1-11-3 1-16 3-15 6-16 9-16 11-13 10-9 13-8 18-6z" fill="#FEFEFE"/>
<path transform="translate(1031,106)" d="m0 0h95l15 3 16 8 13 11 9 12 6 13 3 11 1 8v10l-3 16-6 14-9 12-9 9-13 8-14 5-15 2h-36l-1-1v-43l38-1 10-4 5-4 6-12v-12l-6-12-5-4-6-3-4-1-90-1z" fill="#FEFEFE"/>
<path transform="translate(839,106)" d="m0 0h55l48 76 13 20 16 25 10 15 13 20 17 26 10 15-1 2h-53l-13-21-30-50-10-16-14-21-29-43-22-33-10-14z" fill="#FEFEFE"/>
<path transform="translate(1649,105)" d="m0 0h46l1 1-1 198-1 1h-45l-1-1v-197z" fill="#FEFEFE"/>
<path transform="translate(11,106)" d="m0 0h48l3 8 18 66 14 51 18 66 1 7-1 1h-43l-2-1-56-196z" fill="#FEFEFE"/>
<path transform="translate(494,179)" d="m0 0h41l16 3 13 5 11 7 9 8 9 13 4 10 2 9v14l-4 16-6 12-8 10-10 8-16 8-9 2-10 1h-42v-44l39-1 10-2 6-5 3-7v-13l-4-8-5-4-7-2-42-1z" fill="#FEFEFE"/>
<path transform="translate(1779,155)" d="m0 0h53l-1 6-15 31-11 24-8 16-18 38-16 33-2 2h-56l-1-4 10-19 38-76 10-19 10-21 5-9z" fill="#FEFEFE"/>
<path transform="translate(1338,106)" d="m0 0h95l12 3 11 6 10 9 6 7 7 14 2 8v18l-5 12-7 8-8 7-5-1-16-8-14-6v-2l6-5 3-9-1-10-5-6-2-1-89-1z" fill="#FEFEFE"/>
<path transform="translate(248,106)" d="m0 0h46l-4 16-15 52-30 105-7 25-3-3-18-65-2-8 1-8 18-66 12-43z" fill="#FEFEFE"/>
<path transform="translate(130,106)" d="m0 0h45l-1 9-10 35-12 41-26 92-5 18-2 1-3-8-18-67v-8l24-87 7-25z" fill="#FEFEFE"/>
<path transform="translate(442,152)" d="m0 0h46v154h-45l-1-1z" fill="#FEFEFE"/>
<path transform="translate(1543,153)" d="m0 0 45 1v59l-1 91-1 1h-44l-1-1v-149z" fill="#FEFEFE"/>
<path transform="translate(1339,155)" d="m0 0h45l1 1v148l-2 1h-43l-1-1z" fill="#FEFEFE"/>
<path transform="translate(1032,156)" d="m0 0h45v148l-1 1h-44z" fill="#FEFEFE"/>
<path transform="translate(441,106)" d="m0 0h102l13 4 11 7 7 7 7 11 3 9 1 13-3 12-6 10-5 6-15-6-15-4-5-1 2-5 2-6-1-7-4-6-6-3h-86l-2-1z" fill="#FEFEFE"/>
<path transform="translate(177,118)" d="m0 0h2l6 20 18 66 22 80 5 18-1 3h-42l-3-7-23-81-5-18 1-8z" fill="#FEFEFE"/>
<path transform="translate(1488,106)" d="m0 0h152v41l-1 1h-150l-1-1z" fill="#FEFEFE"/>
<path transform="translate(1391,186)" d="m0 0h24l17 4 16 8 13 9 10 10 7 11 3 9v67l-1 1h-44l-1-59-4-10-5-6-9-5-4-1-22-1-1-1v-35z" fill="#FEFEFE"/>
<path transform="translate(1709,106)" d="m0 0h148l-7 16-12 26-1 1-22 1-106-1-1-1v-41z" fill="#FEFEFE"/>
<path transform="translate(303,260)" d="m0 0 127 1 1 1v42l-1 1h-128v-44z" fill="#FEFEFE"/>
<path transform="translate(827,260)" d="m0 0 3 1v43l-1 1h-127l-1-1v-43z" fill="#FEFEFE"/>
<path transform="translate(702,106)" d="m0 0h128v44h-129v-43z" fill="#FEFEFE"/>
<path transform="translate(302,106)" d="m0 0h129v43l-1 1h-128z" fill="#FEFEFE"/>
<path transform="translate(1199,106)" d="m0 0h128l1 1v42l-1 1h-128z" fill="#FEFEFE"/>
<path transform="translate(1200,260)" d="m0 0 127 1v43l-1 1h-127v-44z" fill="#FEFEFE"/>
<path transform="translate(704,155)" d="m0 0 44 1v98l-1 1h-44l-1-1v-98z" fill="#FEFEFE"/>
<path transform="translate(1200,156)" d="m0 0h45v99h-45l-1-1v-54z" fill="#FEFEFE"/>
<path transform="translate(303,156)" d="m0 0h45v99h-45z" fill="#FEFEFE"/>
<path transform="translate(899,207)" d="m0 0 3 1 12 19 9 15 2 4-1 4-10 17-12 20-10 16-2 2h-52l-1-2 16-25 10-15 11-17 13-20 11-17z" fill="#FEFEFE"/>
<path transform="translate(964,106)" d="m0 0h55l-7 11-7 10-26 39-8 11-12 18-4-2-16-25-6-10 1-5 11-18 10-15z" fill="#FEFEFE"/>
<path transform="translate(1789,261)" d="m0 0h64v43l-1 1h-82l-1-2 15-32z" fill="#FEFEFE"/>
<path transform="translate(753,182)" d="m0 0h63v44h-62l-1-1z" fill="#FEFEFE"/>
<path transform="translate(354,182)" d="m0 0h62l1 2v41l-1 1h-62z" fill="#FEFEFE"/>
<path transform="translate(1252,182)" d="m0 0h61l1 4v39l-1 1h-62v-43z" fill="#FEFEFE"/>
</svg>
